<mxfile host="app.diagrams.net" modified="2024-04-08T15:15:36.413Z" agent="Mozilla/5.0 (Windows NT 10.0; Win64; x64) AppleWebKit/537.36 (KHTML, like Gecko) Chrome/123.0.0.0 Safari/537.36 Edg/123.0.0.0" etag="RWv8NrlXL_nyGrSHG-VC" version="24.2.2" type="github">
  <diagram id="7kDKLHeCs0O-ERI10_3t" name="第 1 页">
    <mxGraphModel dx="1940" dy="792" grid="1" gridSize="10" guides="1" tooltips="1" connect="1" arrows="1" fold="1" page="1" pageScale="1" pageWidth="827" pageHeight="1169" math="0" shadow="0">
      <root>
        <mxCell id="0" />
        <mxCell id="1" parent="0" />
        <mxCell id="ikgCimP6HVa5O3g01R5H-14" style="rounded=0;orthogonalLoop=1;jettySize=auto;html=1;entryX=0;entryY=0.5;entryDx=0;entryDy=0;startArrow=none;startFill=0;endArrow=none;endFill=0;exitX=1;exitY=0;exitDx=0;exitDy=0;fontSize=15;" parent="1" source="ikgCimP6HVa5O3g01R5H-1" target="ikgCimP6HVa5O3g01R5H-11" edge="1">
          <mxGeometry relative="1" as="geometry">
            <mxPoint x="360" y="330" as="sourcePoint" />
          </mxGeometry>
        </mxCell>
        <mxCell id="ikgCimP6HVa5O3g01R5H-21" style="edgeStyle=none;rounded=0;orthogonalLoop=1;jettySize=auto;html=1;exitX=1;exitY=0.25;exitDx=0;exitDy=0;entryX=0;entryY=0.5;entryDx=0;entryDy=0;startArrow=none;startFill=0;endArrow=none;endFill=0;fontSize=15;" parent="1" source="ikgCimP6HVa5O3g01R5H-1" target="ikgCimP6HVa5O3g01R5H-12" edge="1">
          <mxGeometry relative="1" as="geometry" />
        </mxCell>
        <mxCell id="ikgCimP6HVa5O3g01R5H-25" style="edgeStyle=none;rounded=0;orthogonalLoop=1;jettySize=auto;html=1;exitX=1;exitY=0.5;exitDx=0;exitDy=0;entryX=0;entryY=0.5;entryDx=0;entryDy=0;startArrow=none;startFill=0;endArrow=none;endFill=0;fontSize=15;" parent="1" source="ikgCimP6HVa5O3g01R5H-1" target="ikgCimP6HVa5O3g01R5H-13" edge="1">
          <mxGeometry relative="1" as="geometry" />
        </mxCell>
        <mxCell id="ikgCimP6HVa5O3g01R5H-33" style="edgeStyle=none;rounded=0;orthogonalLoop=1;jettySize=auto;html=1;exitX=0.5;exitY=1;exitDx=0;exitDy=0;entryX=0.5;entryY=0;entryDx=0;entryDy=0;startArrow=none;startFill=0;endArrow=none;endFill=0;fontSize=15;" parent="1" source="ikgCimP6HVa5O3g01R5H-1" target="ikgCimP6HVa5O3g01R5H-32" edge="1">
          <mxGeometry relative="1" as="geometry" />
        </mxCell>
        <mxCell id="ikgCimP6HVa5O3g01R5H-41" style="edgeStyle=none;rounded=0;orthogonalLoop=1;jettySize=auto;html=1;exitX=0.75;exitY=1;exitDx=0;exitDy=0;entryX=0.5;entryY=0;entryDx=0;entryDy=0;startArrow=none;startFill=0;endArrow=none;endFill=0;fontSize=15;" parent="1" source="ikgCimP6HVa5O3g01R5H-1" target="ikgCimP6HVa5O3g01R5H-40" edge="1">
          <mxGeometry relative="1" as="geometry" />
        </mxCell>
        <mxCell id="ikgCimP6HVa5O3g01R5H-72" style="edgeStyle=none;rounded=0;orthogonalLoop=1;jettySize=auto;html=1;exitX=0.25;exitY=1;exitDx=0;exitDy=0;entryX=0.5;entryY=0;entryDx=0;entryDy=0;startArrow=none;startFill=0;endArrow=none;endFill=0;fontSize=15;" parent="1" source="ikgCimP6HVa5O3g01R5H-1" target="ikgCimP6HVa5O3g01R5H-68" edge="1">
          <mxGeometry relative="1" as="geometry" />
        </mxCell>
        <mxCell id="ikgCimP6HVa5O3g01R5H-1" value="用户" style="rounded=0;whiteSpace=wrap;html=1;fontSize=15;" parent="1" vertex="1">
          <mxGeometry x="210" y="330" width="120" height="60" as="geometry" />
        </mxCell>
        <mxCell id="ikgCimP6HVa5O3g01R5H-60" style="edgeStyle=none;rounded=0;orthogonalLoop=1;jettySize=auto;html=1;exitX=0;exitY=1;exitDx=0;exitDy=0;entryX=0.5;entryY=0;entryDx=0;entryDy=0;startArrow=none;startFill=0;endArrow=none;endFill=0;fontSize=15;" parent="1" source="ikgCimP6HVa5O3g01R5H-2" target="ikgCimP6HVa5O3g01R5H-59" edge="1">
          <mxGeometry relative="1" as="geometry" />
        </mxCell>
        <mxCell id="ikgCimP6HVa5O3g01R5H-2" value="文献" style="rounded=0;whiteSpace=wrap;html=1;fontSize=15;" parent="1" vertex="1">
          <mxGeometry x="750" y="330" width="120" height="60" as="geometry" />
        </mxCell>
        <mxCell id="ikgCimP6HVa5O3g01R5H-17" style="edgeStyle=none;rounded=0;orthogonalLoop=1;jettySize=auto;html=1;exitX=1;exitY=0.5;exitDx=0;exitDy=0;entryX=0;entryY=0;entryDx=0;entryDy=0;startArrow=none;startFill=0;endArrow=none;endFill=0;fontSize=15;" parent="1" source="ikgCimP6HVa5O3g01R5H-11" target="ikgCimP6HVa5O3g01R5H-2" edge="1">
          <mxGeometry relative="1" as="geometry" />
        </mxCell>
        <mxCell id="ikgCimP6HVa5O3g01R5H-11" value="点赞" style="rhombus;whiteSpace=wrap;html=1;fontSize=15;" parent="1" vertex="1">
          <mxGeometry x="500" y="200" width="80" height="80" as="geometry" />
        </mxCell>
        <mxCell id="ikgCimP6HVa5O3g01R5H-22" style="edgeStyle=none;rounded=0;orthogonalLoop=1;jettySize=auto;html=1;exitX=1;exitY=0.5;exitDx=0;exitDy=0;entryX=0;entryY=0.25;entryDx=0;entryDy=0;startArrow=none;startFill=0;endArrow=none;endFill=0;fontSize=15;" parent="1" source="ikgCimP6HVa5O3g01R5H-12" target="ikgCimP6HVa5O3g01R5H-2" edge="1">
          <mxGeometry relative="1" as="geometry" />
        </mxCell>
        <mxCell id="ikgCimP6HVa5O3g01R5H-12" value="评分" style="rhombus;whiteSpace=wrap;html=1;fontSize=15;" parent="1" vertex="1">
          <mxGeometry x="500" y="290" width="80" height="80" as="geometry" />
        </mxCell>
        <mxCell id="ikgCimP6HVa5O3g01R5H-26" style="edgeStyle=none;rounded=0;orthogonalLoop=1;jettySize=auto;html=1;exitX=1;exitY=0.5;exitDx=0;exitDy=0;entryX=0;entryY=0.5;entryDx=0;entryDy=0;startArrow=none;startFill=0;endArrow=none;endFill=0;fontSize=15;" parent="1" source="ikgCimP6HVa5O3g01R5H-13" target="ikgCimP6HVa5O3g01R5H-2" edge="1">
          <mxGeometry relative="1" as="geometry" />
        </mxCell>
        <mxCell id="ikgCimP6HVa5O3g01R5H-13" value="收藏" style="rhombus;whiteSpace=wrap;html=1;fontSize=15;" parent="1" vertex="1">
          <mxGeometry x="500" y="380" width="80" height="80" as="geometry" />
        </mxCell>
        <mxCell id="ikgCimP6HVa5O3g01R5H-19" value="m" style="text;html=1;align=center;verticalAlign=middle;resizable=0;points=[];autosize=1;fontSize=15;" parent="1" vertex="1">
          <mxGeometry x="310" y="305" width="40" height="30" as="geometry" />
        </mxCell>
        <mxCell id="ikgCimP6HVa5O3g01R5H-20" value="n" style="text;html=1;align=center;verticalAlign=middle;resizable=0;points=[];autosize=1;fontSize=15;" parent="1" vertex="1">
          <mxGeometry x="735" y="305" width="30" height="30" as="geometry" />
        </mxCell>
        <mxCell id="ikgCimP6HVa5O3g01R5H-23" value="m" style="text;html=1;align=center;verticalAlign=middle;resizable=0;points=[];autosize=1;fontSize=15;" parent="1" vertex="1">
          <mxGeometry x="340" y="315" width="40" height="30" as="geometry" />
        </mxCell>
        <mxCell id="ikgCimP6HVa5O3g01R5H-24" value="n" style="text;html=1;align=center;verticalAlign=middle;resizable=0;points=[];autosize=1;fontSize=15;" parent="1" vertex="1">
          <mxGeometry x="695" y="315" width="30" height="30" as="geometry" />
        </mxCell>
        <mxCell id="ikgCimP6HVa5O3g01R5H-27" value="m" style="text;html=1;align=center;verticalAlign=middle;resizable=0;points=[];autosize=1;fontSize=15;" parent="1" vertex="1">
          <mxGeometry x="340" y="345" width="40" height="30" as="geometry" />
        </mxCell>
        <mxCell id="ikgCimP6HVa5O3g01R5H-28" value="n" style="text;html=1;align=center;verticalAlign=middle;resizable=0;points=[];autosize=1;fontSize=15;" parent="1" vertex="1">
          <mxGeometry x="705" y="345" width="30" height="30" as="geometry" />
        </mxCell>
        <mxCell id="ikgCimP6HVa5O3g01R5H-61" style="edgeStyle=none;rounded=0;orthogonalLoop=1;jettySize=auto;html=1;exitX=1;exitY=0.5;exitDx=0;exitDy=0;entryX=0;entryY=0.5;entryDx=0;entryDy=0;startArrow=none;startFill=0;endArrow=none;endFill=0;fontSize=15;" parent="1" source="ikgCimP6HVa5O3g01R5H-29" target="ikgCimP6HVa5O3g01R5H-59" edge="1">
          <mxGeometry relative="1" as="geometry" />
        </mxCell>
        <mxCell id="ikgCimP6HVa5O3g01R5H-29" value="本地文献" style="rounded=0;whiteSpace=wrap;html=1;fontSize=15;" parent="1" vertex="1">
          <mxGeometry x="210" y="615" width="120" height="60" as="geometry" />
        </mxCell>
        <mxCell id="ikgCimP6HVa5O3g01R5H-30" value="搜索记录" style="rounded=0;whiteSpace=wrap;html=1;fontSize=15;" parent="1" vertex="1">
          <mxGeometry x="210" y="110" width="120" height="60" as="geometry" />
        </mxCell>
        <mxCell id="ikgCimP6HVa5O3g01R5H-34" style="edgeStyle=none;rounded=0;orthogonalLoop=1;jettySize=auto;html=1;exitX=0.5;exitY=1;exitDx=0;exitDy=0;entryX=0.5;entryY=0;entryDx=0;entryDy=0;startArrow=none;startFill=0;endArrow=none;endFill=0;fontSize=15;" parent="1" source="ikgCimP6HVa5O3g01R5H-32" target="ikgCimP6HVa5O3g01R5H-29" edge="1">
          <mxGeometry relative="1" as="geometry" />
        </mxCell>
        <mxCell id="ikgCimP6HVa5O3g01R5H-32" value="上传" style="rhombus;whiteSpace=wrap;html=1;fontSize=15;" parent="1" vertex="1">
          <mxGeometry x="230" y="460" width="80" height="80" as="geometry" />
        </mxCell>
        <mxCell id="ikgCimP6HVa5O3g01R5H-37" value="1" style="text;html=1;align=center;verticalAlign=middle;resizable=0;points=[];autosize=1;fontSize=15;" parent="1" vertex="1">
          <mxGeometry x="265" y="385" width="30" height="30" as="geometry" />
        </mxCell>
        <mxCell id="ikgCimP6HVa5O3g01R5H-38" value="n" style="text;html=1;align=center;verticalAlign=middle;resizable=0;points=[];autosize=1;fontSize=15;" parent="1" vertex="1">
          <mxGeometry x="270" y="585" width="30" height="30" as="geometry" />
        </mxCell>
        <mxCell id="ikgCimP6HVa5O3g01R5H-42" style="edgeStyle=none;rounded=0;orthogonalLoop=1;jettySize=auto;html=1;exitX=0.5;exitY=1;exitDx=0;exitDy=0;entryX=0.75;entryY=0;entryDx=0;entryDy=0;startArrow=none;startFill=0;endArrow=none;endFill=0;fontSize=15;" parent="1" source="ikgCimP6HVa5O3g01R5H-40" target="ikgCimP6HVa5O3g01R5H-29" edge="1">
          <mxGeometry relative="1" as="geometry" />
        </mxCell>
        <mxCell id="ikgCimP6HVa5O3g01R5H-45" style="edgeStyle=none;rounded=0;orthogonalLoop=1;jettySize=auto;html=1;exitX=1;exitY=0.5;exitDx=0;exitDy=0;entryX=0;entryY=0.75;entryDx=0;entryDy=0;startArrow=none;startFill=0;endArrow=none;endFill=0;fontSize=15;" parent="1" source="ikgCimP6HVa5O3g01R5H-40" target="ikgCimP6HVa5O3g01R5H-2" edge="1">
          <mxGeometry relative="1" as="geometry" />
        </mxCell>
        <mxCell id="ikgCimP6HVa5O3g01R5H-40" value="对话记录" style="rhombus;whiteSpace=wrap;html=1;fontSize=15;" parent="1" vertex="1">
          <mxGeometry x="390" y="460" width="80" height="80" as="geometry" />
        </mxCell>
        <mxCell id="ikgCimP6HVa5O3g01R5H-43" value="m" style="text;html=1;align=center;verticalAlign=middle;resizable=0;points=[];autosize=1;fontSize=15;" parent="1" vertex="1">
          <mxGeometry x="320" y="385" width="40" height="30" as="geometry" />
        </mxCell>
        <mxCell id="ikgCimP6HVa5O3g01R5H-44" value="n" style="text;html=1;align=center;verticalAlign=middle;resizable=0;points=[];autosize=1;fontSize=15;" parent="1" vertex="1">
          <mxGeometry x="305" y="575" width="30" height="30" as="geometry" />
        </mxCell>
        <mxCell id="ikgCimP6HVa5O3g01R5H-46" value="p" style="text;html=1;align=center;verticalAlign=middle;resizable=0;points=[];autosize=1;fontSize=15;" parent="1" vertex="1">
          <mxGeometry x="715" y="385" width="30" height="30" as="geometry" />
        </mxCell>
        <mxCell id="ikgCimP6HVa5O3g01R5H-47" value="单篇摘要" style="rounded=0;whiteSpace=wrap;html=1;fontSize=15;" parent="1" vertex="1">
          <mxGeometry x="750" y="615" width="120" height="60" as="geometry" />
        </mxCell>
        <mxCell id="ikgCimP6HVa5O3g01R5H-51" style="edgeStyle=none;rounded=0;orthogonalLoop=1;jettySize=auto;html=1;exitX=1;exitY=0.5;exitDx=0;exitDy=0;entryX=0;entryY=0.5;entryDx=0;entryDy=0;startArrow=none;startFill=0;endArrow=none;endFill=0;fontSize=15;" parent="1" source="ikgCimP6HVa5O3g01R5H-48" target="ikgCimP6HVa5O3g01R5H-49" edge="1">
          <mxGeometry relative="1" as="geometry" />
        </mxCell>
        <mxCell id="ikgCimP6HVa5O3g01R5H-48" value="综述报告记录" style="rounded=0;whiteSpace=wrap;html=1;fontSize=15;" parent="1" vertex="1">
          <mxGeometry x="-100" y="330" width="120" height="60" as="geometry" />
        </mxCell>
        <mxCell id="ikgCimP6HVa5O3g01R5H-50" style="edgeStyle=none;rounded=0;orthogonalLoop=1;jettySize=auto;html=1;exitX=1;exitY=0.5;exitDx=0;exitDy=0;entryX=0;entryY=0.5;entryDx=0;entryDy=0;startArrow=none;startFill=0;endArrow=none;endFill=0;fontSize=15;" parent="1" source="ikgCimP6HVa5O3g01R5H-49" target="ikgCimP6HVa5O3g01R5H-1" edge="1">
          <mxGeometry relative="1" as="geometry" />
        </mxCell>
        <mxCell id="ikgCimP6HVa5O3g01R5H-49" value="生成综述" style="rhombus;whiteSpace=wrap;html=1;fontSize=15;" parent="1" vertex="1">
          <mxGeometry x="70" y="320" width="80" height="80" as="geometry" />
        </mxCell>
        <mxCell id="ikgCimP6HVa5O3g01R5H-52" value="1" style="text;html=1;align=center;verticalAlign=middle;resizable=0;points=[];autosize=1;fontSize=15;" parent="1" vertex="1">
          <mxGeometry x="185" y="335" width="30" height="30" as="geometry" />
        </mxCell>
        <mxCell id="ikgCimP6HVa5O3g01R5H-53" value="n" style="text;html=1;align=center;verticalAlign=middle;resizable=0;points=[];autosize=1;fontSize=15;" parent="1" vertex="1">
          <mxGeometry x="15" y="335" width="30" height="30" as="geometry" />
        </mxCell>
        <mxCell id="ikgCimP6HVa5O3g01R5H-55" style="edgeStyle=none;rounded=0;orthogonalLoop=1;jettySize=auto;html=1;exitX=0.5;exitY=1;exitDx=0;exitDy=0;entryX=0.5;entryY=0;entryDx=0;entryDy=0;startArrow=none;startFill=0;endArrow=none;endFill=0;fontSize=15;" parent="1" source="ikgCimP6HVa5O3g01R5H-54" target="ikgCimP6HVa5O3g01R5H-1" edge="1">
          <mxGeometry relative="1" as="geometry" />
        </mxCell>
        <mxCell id="ikgCimP6HVa5O3g01R5H-56" value="1" style="edgeLabel;html=1;align=center;verticalAlign=middle;resizable=0;points=[];fontSize=15;" parent="ikgCimP6HVa5O3g01R5H-55" vertex="1" connectable="0">
          <mxGeometry x="0.45" y="9" relative="1" as="geometry">
            <mxPoint as="offset" />
          </mxGeometry>
        </mxCell>
        <mxCell id="ikgCimP6HVa5O3g01R5H-57" style="edgeStyle=none;rounded=0;orthogonalLoop=1;jettySize=auto;html=1;exitX=0.5;exitY=0;exitDx=0;exitDy=0;entryX=0.5;entryY=1;entryDx=0;entryDy=0;startArrow=none;startFill=0;endArrow=none;endFill=0;fontSize=15;" parent="1" source="ikgCimP6HVa5O3g01R5H-54" target="ikgCimP6HVa5O3g01R5H-30" edge="1">
          <mxGeometry relative="1" as="geometry" />
        </mxCell>
        <mxCell id="ikgCimP6HVa5O3g01R5H-54" value="搜索文献" style="rhombus;whiteSpace=wrap;html=1;fontSize=15;" parent="1" vertex="1">
          <mxGeometry x="230" y="210" width="80" height="80" as="geometry" />
        </mxCell>
        <mxCell id="ikgCimP6HVa5O3g01R5H-58" value="n" style="text;html=1;align=center;verticalAlign=middle;resizable=0;points=[];autosize=1;fontSize=15;" parent="1" vertex="1">
          <mxGeometry x="265" y="165" width="30" height="30" as="geometry" />
        </mxCell>
        <mxCell id="ikgCimP6HVa5O3g01R5H-62" style="edgeStyle=none;rounded=0;orthogonalLoop=1;jettySize=auto;html=1;exitX=1;exitY=1;exitDx=0;exitDy=0;entryX=0;entryY=0.5;entryDx=0;entryDy=0;startArrow=none;startFill=0;endArrow=none;endFill=0;fontSize=15;" parent="1" source="ikgCimP6HVa5O3g01R5H-59" target="ikgCimP6HVa5O3g01R5H-47" edge="1">
          <mxGeometry relative="1" as="geometry" />
        </mxCell>
        <mxCell id="ikgCimP6HVa5O3g01R5H-59" value="生成摘要" style="rhombus;whiteSpace=wrap;html=1;fontSize=15;" parent="1" vertex="1">
          <mxGeometry x="580" y="520" width="80" height="80" as="geometry" />
        </mxCell>
        <mxCell id="ikgCimP6HVa5O3g01R5H-63" value="m" style="text;html=1;align=center;verticalAlign=middle;resizable=0;points=[];autosize=1;fontSize=15;" parent="1" vertex="1">
          <mxGeometry x="330" y="635" width="40" height="30" as="geometry" />
        </mxCell>
        <mxCell id="ikgCimP6HVa5O3g01R5H-64" value="n" style="text;html=1;align=center;verticalAlign=middle;resizable=0;points=[];autosize=1;fontSize=15;" parent="1" vertex="1">
          <mxGeometry x="705" y="425" width="30" height="30" as="geometry" />
        </mxCell>
        <mxCell id="ikgCimP6HVa5O3g01R5H-65" value="p" style="text;html=1;align=center;verticalAlign=middle;resizable=0;points=[];autosize=1;fontSize=15;" parent="1" vertex="1">
          <mxGeometry x="715" y="595" width="30" height="30" as="geometry" />
        </mxCell>
        <mxCell id="ikgCimP6HVa5O3g01R5H-70" style="edgeStyle=none;rounded=0;orthogonalLoop=1;jettySize=auto;html=1;exitX=0.5;exitY=1;exitDx=0;exitDy=0;entryX=0.5;entryY=0;entryDx=0;entryDy=0;startArrow=none;startFill=0;endArrow=none;endFill=0;fontSize=15;" parent="1" source="ikgCimP6HVa5O3g01R5H-67" target="ikgCimP6HVa5O3g01R5H-69" edge="1">
          <mxGeometry relative="1" as="geometry" />
        </mxCell>
        <mxCell id="ikgCimP6HVa5O3g01R5H-71" style="edgeStyle=none;rounded=0;orthogonalLoop=1;jettySize=auto;html=1;exitX=1;exitY=0.5;exitDx=0;exitDy=0;entryX=0;entryY=0.75;entryDx=0;entryDy=0;startArrow=none;startFill=0;endArrow=none;endFill=0;fontSize=15;" parent="1" source="ikgCimP6HVa5O3g01R5H-67" target="ikgCimP6HVa5O3g01R5H-1" edge="1">
          <mxGeometry relative="1" as="geometry" />
        </mxCell>
        <mxCell id="ikgCimP6HVa5O3g01R5H-67" value="评论点赞" style="rhombus;whiteSpace=wrap;html=1;fontSize=15;" parent="1" vertex="1">
          <mxGeometry x="-30" y="430" width="80" height="80" as="geometry" />
        </mxCell>
        <mxCell id="ikgCimP6HVa5O3g01R5H-73" style="edgeStyle=none;rounded=0;orthogonalLoop=1;jettySize=auto;html=1;exitX=0;exitY=0.5;exitDx=0;exitDy=0;entryX=0.75;entryY=0;entryDx=0;entryDy=0;startArrow=none;startFill=0;endArrow=none;endFill=0;fontSize=15;" parent="1" source="ikgCimP6HVa5O3g01R5H-68" target="ikgCimP6HVa5O3g01R5H-69" edge="1">
          <mxGeometry relative="1" as="geometry" />
        </mxCell>
        <mxCell id="ikgCimP6HVa5O3g01R5H-68" value="评论举报" style="rhombus;whiteSpace=wrap;html=1;fontSize=15;" parent="1" vertex="1">
          <mxGeometry x="80" y="490" width="80" height="80" as="geometry" />
        </mxCell>
        <mxCell id="ikgCimP6HVa5O3g01R5H-69" value="评论" style="rounded=0;whiteSpace=wrap;html=1;fontSize=15;" parent="1" vertex="1">
          <mxGeometry x="-100" y="610" width="120" height="60" as="geometry" />
        </mxCell>
        <mxCell id="ikgCimP6HVa5O3g01R5H-74" value="m" style="text;html=1;align=center;verticalAlign=middle;resizable=0;points=[];autosize=1;fontSize=15;" parent="1" vertex="1">
          <mxGeometry x="160" y="355" width="40" height="30" as="geometry" />
        </mxCell>
        <mxCell id="ikgCimP6HVa5O3g01R5H-75" value="n" style="text;html=1;align=center;verticalAlign=middle;resizable=0;points=[];autosize=1;fontSize=15;" parent="1" vertex="1">
          <mxGeometry x="-65" y="585" width="30" height="30" as="geometry" />
        </mxCell>
        <mxCell id="ikgCimP6HVa5O3g01R5H-76" value="m" style="text;html=1;align=center;verticalAlign=middle;resizable=0;points=[];autosize=1;fontSize=15;" parent="1" vertex="1">
          <mxGeometry x="190" y="385" width="40" height="30" as="geometry" />
        </mxCell>
        <mxCell id="ikgCimP6HVa5O3g01R5H-77" value="n" style="text;html=1;align=center;verticalAlign=middle;resizable=0;points=[];autosize=1;fontSize=15;" parent="1" vertex="1">
          <mxGeometry x="15" y="585" width="30" height="30" as="geometry" />
        </mxCell>
        <mxCell id="ikgCimP6HVa5O3g01R5H-79" style="edgeStyle=none;rounded=0;orthogonalLoop=1;jettySize=auto;html=1;exitX=1;exitY=0;exitDx=0;exitDy=0;entryX=0;entryY=0.5;entryDx=0;entryDy=0;startArrow=none;startFill=0;endArrow=none;endFill=0;fontSize=15;" parent="1" source="ikgCimP6HVa5O3g01R5H-78" target="ikgCimP6HVa5O3g01R5H-1" edge="1">
          <mxGeometry relative="1" as="geometry" />
        </mxCell>
        <mxCell id="ikgCimP6HVa5O3g01R5H-80" style="edgeStyle=none;rounded=0;orthogonalLoop=1;jettySize=auto;html=1;exitX=0.5;exitY=1;exitDx=0;exitDy=0;entryX=0.25;entryY=0;entryDx=0;entryDy=0;startArrow=none;startFill=0;endArrow=none;endFill=0;fontSize=15;" parent="1" source="ikgCimP6HVa5O3g01R5H-78" target="ikgCimP6HVa5O3g01R5H-69" edge="1">
          <mxGeometry relative="1" as="geometry" />
        </mxCell>
        <mxCell id="ikgCimP6HVa5O3g01R5H-78" value="评论回复" style="rhombus;whiteSpace=wrap;html=1;fontSize=15;" parent="1" vertex="1">
          <mxGeometry x="-170" y="430" width="80" height="80" as="geometry" />
        </mxCell>
        <mxCell id="ikgCimP6HVa5O3g01R5H-81" value="n" style="text;html=1;align=center;verticalAlign=middle;resizable=0;points=[];autosize=1;fontSize=15;" parent="1" vertex="1">
          <mxGeometry x="-115" y="575" width="30" height="30" as="geometry" />
        </mxCell>
        <mxCell id="ikgCimP6HVa5O3g01R5H-82" value="m" style="text;html=1;align=center;verticalAlign=middle;resizable=0;points=[];autosize=1;fontSize=15;" parent="1" vertex="1">
          <mxGeometry x="120" y="375" width="40" height="30" as="geometry" />
        </mxCell>
      </root>
    </mxGraphModel>
  </diagram>
</mxfile>
